<?xml version="1.0" encoding="utf-8"?>
<!-- Generator: Adobe Illustrator 16.0.0, SVG Export Plug-In . SVG Version: 6.00 Build 0)  -->
<!DOCTYPE svg PUBLIC "-//W3C//DTD SVG 1.1//EN" "http://www.w3.org/Graphics/SVG/1.1/DTD/svg11.dtd">
<svg version="1.1" id="Layer_1" xmlns="http://www.w3.org/2000/svg" xmlns:xlink="http://www.w3.org/1999/xlink" x="0px" y="0px"
	 width="182.328px" height="104.613px" viewBox="0 0 182.328 104.613" enable-background="new 0 0 182.328 104.613"
	 xml:space="preserve">
<path fill="#FFFFFF" d="M75.471,104.613c-5.292,0-8.566,0-10.583,0c-2.017,0-3.023-1.261-3.023-4.285
	c0-3.023,2.77-4.031,7.305-4.031c4.536,0,8.82-2.775,11.088-8.569s3.78-10.329,3.78-17.637c0-7.308-1.763-7.813-1.763-10.332
	c0-2.519,0.505-2.268-3.779-2.519c-4.285-0.251-16.63-3.779-22.427-6.298c-5.796-2.521-20.413-10.836-23.938-16.128
	c-3.525-5.292-3.528-7.306-3.024-11.59c0.505-4.284-0.501-8.061-1.258-10.078c-0.756-2.017-2.773-4.287-2.017-6.301
	c0.756-2.014,3.024,0.505,3.78,2.521c0.755,2.014,1.261,6.047,1.261,10.834c0,7.917-0.239,8.165,1.007,9.827
	c1.134,1.512,5.294,6.928,15.245,12.724c9.951,5.797,26.582,10.459,33.512,11.215s9.198,0.124,9.827,0.124v3.15
	c0,0-2.649,0.883-3.151,3.907S86.81,72.235,86.683,75.51S86.556,86.722,85.8,90.628c-0.756,3.904-0.88,8.312-1.385,11.084
	C83.911,104.486,84.542,104.613,75.471,104.613z"/>
<path fill="none" stroke="#FFFFFF" stroke-width="1.5118" d="M29.611,25.681c-3.969,0-10.394-1.323-14.93-6.992
	S8.067,7.728,6.367,9.996c-1.701,2.268-2.079,8.315,0,11.906C8.445,25.492,18.461,34.752,22.43,37.02
	c3.969,2.268,8.126,3.59,12.095,3.969c3.968,0.378,7.937,1.701,10.771,3.402"/>
<path fill="none" stroke="#FFFFFF" stroke-width="1.5118" d="M30.934,6.116h123.763c0.289,0.05,0.543,0.269,0.714,0.729
	c0.756,2.014-2.775,8.318-2.02,6.301c0.209-0.555-1.542,3.673-1.164,6.201c0.945,6.299,2.138,6.083-2.143,11.625
	c-5.64,7.305-13.028,14.802-24.91,19.97c-5.799,2.519-18.142,6.047-22.43,6.298c-4.282,0.251-3.779,0-3.779,2.519
	c0,2.519-1.76,3.023-1.76,10.332c0,7.309,1.513,11.844,3.78,17.637c2.268,5.793,6.549,8.569,11.084,8.569
	c4.536,0,7.306,1.007,7.306,4.031c0,3.024-1.004,4.285-3.024,4.285c-0.886,0-2.02,0-3.467,0H86.116"/>
<path fill="none" stroke="#FFFFFF" stroke-width="1.5118" d="M151.974,28.327c3.968,0,10.051-3.968,14.587-9.638
	s7.494-9.481,10.075-8.315c2.522,1.134,0.319,7.938-1.76,11.528c-2.079,3.591-9.012,10.205-12.98,12.473
	c-3.969,2.268-10.016,5.292-13.984,5.67c-3.968,0.378-9.13,2.646-11.965,4.347"/>
<path fill="#FFFFFF" d="M5.109,14.218c0.741-2.832,2.203-4.899,3.263-4.615c1.06,0.278,1.317,2.79,0.576,5.62
	c-0.741,2.826-2.203,4.89-3.263,4.615C4.625,19.56,4.368,17.042,5.109,14.218z"/>
<line fill="none" stroke="#FFFFFF" stroke-width="1.5118" x1="90.841" y1="104.486" x2="90.841" y2="6.216"/>
<line fill="none" stroke="#FFFFFF" stroke-width="1.5118" x1="98.965" y1="57.43" x2="91.029" y2="57.43"/>
<line fill="none" stroke="#FFFFFF" stroke-width="1.5118" x1="98.776" y1="59.32" x2="90.841" y2="59.32"/>
<line fill="none" stroke="#FFFFFF" stroke-width="1.5118" x1="115.974" y1="54.217" x2="90.841" y2="54.217"/>
<polyline fill="#FFFFFF" stroke="#FFFFFF" stroke-width="1.5118" points="91.148,10.489 154.396,10.489 155.275,7.338 91.275,7.338 
	"/>
<line fill="#FFFFFF" stroke="#FFFFFF" stroke-width="0.6047" x1="153.51" y1="25.103" x2="90.645" y2="25.103"/>
<line fill="#FFFFFF" stroke="#FFFFFF" stroke-width="0.6047" x1="152.506" y1="20.316" x2="91.148" y2="20.316"/>
<line fill="#FFFFFF" stroke="#FFFFFF" stroke-width="0.6047" x1="152.754" y1="22.583" x2="91.022" y2="22.583"/>
<line fill="#FFFFFF" stroke="#FFFFFF" stroke-width="0.6047" x1="97.323" y1="10.991" x2="97.323" y2="20.189"/>
<line fill="#FFFFFF" stroke="#FFFFFF" stroke-width="0.6047" x1="103.495" y1="10.991" x2="103.495" y2="20.189"/>
<line fill="#FFFFFF" stroke="#FFFFFF" stroke-width="0.6047" x1="108.786" y1="10.991" x2="108.786" y2="20.189"/>
<line fill="#FFFFFF" stroke="#FFFFFF" stroke-width="0.6047" x1="114.834" y1="10.991" x2="114.834" y2="20.189"/>
<line fill="#FFFFFF" stroke="#FFFFFF" stroke-width="0.6047" x1="120.379" y1="10.991" x2="120.379" y2="20.189"/>
<line fill="#FFFFFF" stroke="#FFFFFF" stroke-width="0.6047" x1="124.915" y1="10.991" x2="124.915" y2="20.189"/>
<line fill="#FFFFFF" stroke="#FFFFFF" stroke-width="0.6047" x1="130.331" y1="10.991" x2="130.331" y2="20.189"/>
<line fill="#FFFFFF" stroke="#FFFFFF" stroke-width="0.6047" x1="134.488" y1="10.991" x2="134.488" y2="20.189"/>
<line fill="#FFFFFF" stroke="#FFFFFF" stroke-width="0.6047" x1="139.023" y1="10.991" x2="139.023" y2="20.189"/>
<line fill="#FFFFFF" stroke="#FFFFFF" stroke-width="0.6047" x1="142.424" y1="10.991" x2="142.424" y2="20.189"/>
<line fill="#FFFFFF" stroke="#FFFFFF" stroke-width="0.6047" x1="146.081" y1="10.991" x2="146.081" y2="20.189"/>
<line fill="#FFFFFF" stroke="#FFFFFF" stroke-width="0.6047" x1="148.472" y1="10.991" x2="148.472" y2="20.189"/>
<line fill="#FFFFFF" stroke="#FFFFFF" stroke-width="0.6047" x1="150.489" y1="10.991" x2="150.489" y2="20.189"/>
<path fill="#FFFFFF" stroke="#FFFFFF" stroke-width="0.6047" d="M93.668,19.433c-0.379-1.639-2.016-7.054,0-6.93
	c2.013,0.127,2.013,3.274,1.889,5.418c-0.124,2.141-0.254,1.385-0.254,1.385"/>
<path fill="#9F9F9F" stroke="#9D9D9C" stroke-width="0.6047" d="M99.591,18.928c0,0-1.766-6.047,0.248-6.171
	c2.02-0.127,1.388,5.415,1.264,6.298"/>
<path fill="#FFFFFF" stroke="#FFFFFF" stroke-width="0.6047" d="M105.131,19.182c0,0-1.382-6.679,0.885-6.679
	c2.268,0,0.88,7.308,0.88,7.308"/>
<path fill="#9F9F9F" stroke="#9D9D9C" stroke-width="0.6047" d="M110.552,19.56c0,0-0.883-7.308,1.512-7.057
	c2.392,0.254,0.88,6.679,0.88,6.679"/>
<line fill="#FFFFFF" stroke="#FFFFFF" stroke-width="0.6047" x1="91.022" y1="48.285" x2="132.096" y2="48.285"/>
<polyline fill="#FFFFFF" stroke="#FFFFFF" stroke-width="0.6047" points="92.66,54.456 93.038,48.536 93.29,54.333 "/>
<polyline fill="#FFFFFF" stroke="#FFFFFF" stroke-width="0.6047" points="93.792,54.333 95.18,48.409 94.926,54.333 96.06,54.205 
	98.835,48.409 96.815,54.333 97.95,54.583 102.863,48.536 99.715,54.583 100.973,54.456 106.643,48.285 102.361,54.961 
	104.504,54.456 110.044,48.663 105.639,54.205 "/>
<line fill="#FFFFFF" stroke="#FFFFFF" stroke-width="0.6047" x1="118.74" y1="97.67" x2="90.897" y2="97.67"/>
<line fill="#FFFFFF" stroke="#FFFFFF" stroke-width="0.6047" x1="91.275" y1="41.104" x2="142.047" y2="41.104"/>
<line fill="#FFFFFF" stroke="#FFFFFF" stroke-width="0.6047" x1="91.275" y1="41.859" x2="139.528" y2="41.859"/>
<line fill="#FFFFFF" stroke="#FFFFFF" stroke-width="0.6047" x1="91.149" y1="42.867" x2="139.15" y2="42.867"/>
<g>
	<path fill="#FFFFFF" d="M94.344,30.205c0,0.679-0.638,1.234-1.423,1.234c-0.787,0-1.424-0.555-1.424-1.234
		c0-0.676,0.638-1.229,1.424-1.229C93.706,28.977,94.344,29.529,94.344,30.205z"/>
	<path fill="#FFFFFF" d="M97.908,33.53c0,0.682-0.576,1.234-1.282,1.234c-0.708,0-1.284-0.552-1.284-1.234
		c0-0.676,0.576-1.225,1.284-1.225C97.332,32.305,97.908,32.854,97.908,33.53z"/>
	<ellipse fill="#FFFFFF" cx="98.121" cy="29.048" rx="1.352" ry="1.374"/>
	<path fill="#FFFFFF" d="M103.035,33.459c0,0.72-0.414,1.305-0.924,1.305c-0.511,0-0.924-0.584-0.924-1.305
		c0-0.717,0.413-1.302,0.924-1.302C102.621,32.157,103.035,32.742,103.035,33.459z"/>
	<path fill="#FFFFFF" d="M104.889,28.906c0-0.603-0.543-1.084-1.211-1.084c-0.667,0-1.21,0.481-1.21,1.084
		c0,0.599,0.543,1.083,1.21,1.083C104.345,29.989,104.889,29.505,104.889,28.906z"/>
	<path fill="#FFFFFF" d="M108.45,33.028c0,0.638-0.479,1.155-1.066,1.155c-0.593,0-1.068-0.517-1.068-1.155
		c0-0.641,0.476-1.157,1.068-1.157C107.971,31.871,108.45,32.387,108.45,33.028z"/>
	<ellipse fill="#FFFFFF" cx="110.018" cy="29.34" rx="1.568" ry="1.086"/>
	<ellipse fill="#FFFFFF" cx="112.938" cy="33.53" rx="1.069" ry="1.086"/>
	<path fill="none" stroke="#FFFFFF" stroke-width="0.8614" d="M101.968,27.385c0,0,5.058,4.771,5.699,5.643"/>
	<path fill="none" stroke="#FFFFFF" stroke-width="0.8614" d="M104.245,27.459c0,0-0.851,6.147-1.919,6.8"/>
	<path fill="none" stroke="#FFFFFF" stroke-width="0.8614" stroke-linecap="round" d="M96.414,27.604c0,0,6.91,5.64,7.264,6.145"/>
	<path fill="none" stroke="#FFFFFF" stroke-width="0.8614" stroke-linecap="round" d="M111.087,27.822
		c-0.284,1.229-1.64,5.348-2.496,6.29"/>
	
		<line fill="none" stroke="#FFFFFF" stroke-width="0.8614" stroke-linecap="round" x1="107.597" y1="33.964" x2="105.958" y2="36.568"/>
	<path fill="none" stroke="#FFFFFF" stroke-width="0.8614" stroke-linecap="round" d="M107.168,32.88
		c0.998,1.231,2.279,2.533,2.351,3.835"/>
	<path fill="none" stroke="#FFFFFF" stroke-width="0.8614" stroke-linecap="round" d="M107.883,27.459l2.135,1.881
		c0,0,2.779,2.604,4.344,4.119"/>
	<path fill="none" stroke="#FFFFFF" stroke-width="0.8614" stroke-linecap="round" d="M115.858,30.137
		c-1.497,1.734-3.204,4.695-4.704,5.711"/>
	<path fill="none" stroke="#FFFFFF" stroke-width="0.8614" stroke-linecap="round" d="M112.867,33.964
		c0.927,1.231,1.282,2.537,1.282,2.537"/>
	<path fill="none" stroke="#FFFFFF" stroke-width="0.8614" stroke-linecap="round" d="M102.326,33.964
		c1.069,1.016,1.565,2.031,1.707,2.823"/>
	
		<line fill="none" stroke="#FFFFFF" stroke-width="0.8614" stroke-linecap="round" x1="102.252" y1="34.546" x2="101.041" y2="36.716"/>
	<path fill="none" stroke="#FFFFFF" stroke-width="0.8614" stroke-linecap="round" d="M91.71,27.822
		c0.783,0.868,1.138,1.878,1.851,2.602c0.715,0.723,4.771,3.325,4.771,3.325"/>
	<path fill="none" stroke="#FFFFFF" stroke-width="0.8614" stroke-linecap="round" d="M93.562,27.533
		c0.283,0.649,0.283,1.807,0.283,2.457"/>
	<path fill="none" stroke="#FFFFFF" stroke-width="0.8614" stroke-linecap="round" d="M98.762,28.327c0,0-1.069,3.759-1.639,4.846
		c-0.57,1.087-1.282,1.302-1.423,2.965"/>
	<path fill="#FFFFFF" d="M96.337,33.53"/>
	<path fill="none" stroke="#FFFFFF" stroke-width="0.8614" stroke-linecap="round" d="M96.337,33.53
		c1.143,0.729,2.211,2.026,2.64,2.971"/>
</g>
<g>
	<ellipse fill="#FFFFFF" cx="115.361" cy="29.845" rx="1.425" ry="1.228"/>
	<path fill="#FFFFFF" d="M120.35,33.169c0,0.679-0.579,1.231-1.285,1.231c-0.708,0-1.282-0.552-1.282-1.231
		c0-0.676,0.573-1.226,1.282-1.226C119.771,31.944,120.35,32.493,120.35,33.169z"/>
	<path fill="#FFFFFF" d="M121.915,28.69c0-0.761-0.608-1.379-1.353-1.379c-0.75,0-1.355,0.618-1.355,1.379
		c0,0.759,0.605,1.37,1.355,1.37C121.306,30.06,121.915,29.449,121.915,28.69z"/>
	<path fill="#FFFFFF" d="M125.476,33.099c0,0.718-0.414,1.302-0.927,1.302c-0.508,0-0.924-0.584-0.924-1.302
		c0-0.717,0.416-1.302,0.924-1.302C125.062,31.796,125.476,32.381,125.476,33.099z"/>
	<path fill="#FFFFFF" d="M127.33,28.542c0-0.603-0.543-1.083-1.214-1.083c-0.667,0-1.21,0.481-1.21,1.083
		c0,0.6,0.543,1.083,1.21,1.083C126.787,29.626,127.33,29.142,127.33,28.542z"/>
	<path fill="#FFFFFF" d="M130.891,32.665c0,0.641-0.479,1.154-1.069,1.154c-0.59,0-1.068-0.513-1.068-1.154
		c0-0.639,0.479-1.158,1.068-1.158C130.413,31.507,130.891,32.026,130.891,32.665z"/>
	<ellipse fill="#FFFFFF" cx="132.458" cy="28.977" rx="1.567" ry="1.087"/>
	<ellipse fill="#FFFFFF" cx="135.379" cy="33.169" rx="1.069" ry="1.083"/>
	<path fill="none" stroke="#FFFFFF" stroke-width="0.8614" d="M124.407,27.025c0,0,5.061,4.771,5.699,5.64"/>
	<path fill="none" stroke="#FFFFFF" stroke-width="0.8614" d="M126.687,27.092c0,0-0.854,6.151-1.922,6.803"/>
	<path fill="none" stroke="#FFFFFF" stroke-width="0.8614" stroke-linecap="round" d="M118.853,27.24c0,0,6.912,5.64,7.266,6.145"/>
	<path fill="none" stroke="#FFFFFF" stroke-width="0.8614" stroke-linecap="round" d="M133.525,27.459
		c-0.283,1.231-1.639,5.35-2.492,6.289"/>
	
		<line fill="none" stroke="#FFFFFF" stroke-width="0.8614" stroke-linecap="round" x1="130.035" y1="33.604" x2="128.399" y2="36.205"/>
	<path fill="none" stroke="#FFFFFF" stroke-width="0.8614" stroke-linecap="round" d="M129.61,32.52
		c0.995,1.228,2.279,2.53,2.35,3.833"/>
	<path fill="none" stroke="#FFFFFF" stroke-width="0.8614" stroke-linecap="round" d="M130.321,27.092l2.138,1.884
		c0,0,2.778,2.602,4.343,4.122"/>
	<path fill="none" stroke="#FFFFFF" stroke-width="0.8614" stroke-linecap="round" d="M138.297,29.774
		c-1.494,1.733-3.204,4.698-4.701,5.71"/>
	<path fill="none" stroke="#FFFFFF" stroke-width="0.8614" stroke-linecap="round" d="M135.306,33.604
		c0.93,1.229,1.284,2.534,1.284,2.534"/>
	<path fill="none" stroke="#FFFFFF" stroke-width="0.8614" stroke-linecap="round" d="M124.764,33.604
		c1.068,1.013,1.568,2.029,1.709,2.82"/>
	
		<line fill="none" stroke="#FFFFFF" stroke-width="0.8614" stroke-linecap="round" x1="124.69" y1="34.183" x2="123.482" y2="36.353"/>
	<path fill="none" stroke="#FFFFFF" stroke-width="0.8614" stroke-linecap="round" d="M114.149,27.459
		c0.785,0.868,1.14,1.881,1.854,2.601c0.712,0.724,4.772,3.325,4.772,3.325"/>
	<path fill="none" stroke="#FFFFFF" stroke-width="0.8614" stroke-linecap="round" d="M116.003,27.169
		c0.284,0.652,0.284,1.807,0.284,2.457"/>
	<path fill="none" stroke="#FFFFFF" stroke-width="0.8614" stroke-linecap="round" d="M121.2,27.963c0,0-1.069,3.762-1.636,4.846
		c-0.573,1.086-1.282,1.303-1.423,2.965"/>
	<path fill="#FFFFFF" d="M136.17,37.076c0,0.676-0.637,1.231-1.423,1.231s-1.423-0.555-1.423-1.231c0-0.679,0.638-1.231,1.423-1.231
		S136.17,36.397,136.17,37.076"/>
	<path fill="#FFFFFF" d="M128.192,37.799c0-0.756,0.608-1.373,1.353-1.373c0.75,0,1.354,0.617,1.354,1.373
		c0,0.759-0.605,1.376-1.354,1.376C128.8,39.175,128.192,38.558,128.192,37.799z"/>
	<ellipse fill="#FFFFFF" cx="123.99" cy="37.655" rx="1.212" ry="1.084"/>
	<path fill="#FFFFFF" d="M116.083,38.092c0-0.602,0.703-1.086,1.567-1.086c0.862,0,1.565,0.484,1.565,1.086
		c0,0.596-0.703,1.083-1.565,1.083C116.786,39.175,116.083,38.688,116.083,38.092z"/>
	<path fill="none" stroke="#FFFFFF" stroke-width="0.8614" d="M125.7,39.896c0,0-5.059-4.772-5.699-5.64"/>
	<path fill="none" stroke="#FFFFFF" stroke-width="0.8614" d="M123.42,39.825c0,0,0.854-6.151,1.923-6.8"/>
	<path fill="none" stroke="#FFFFFF" stroke-width="0.8614" stroke-linecap="round" d="M131.254,39.681c0,0-6.913-5.643-7.267-6.148"
		/>
	<path fill="none" stroke="#FFFFFF" stroke-width="0.8614" stroke-linecap="round" d="M116.582,39.462
		c0.283-1.231,1.639-5.35,2.492-6.29"/>
	<path fill="none" stroke="#FFFFFF" stroke-width="0.8614" stroke-linecap="round" d="M119.785,39.825l-2.135-1.884
		c0,0-2.782-2.602-4.347-4.12"/>
	<path fill="none" stroke="#FFFFFF" stroke-width="0.8614" stroke-linecap="round" d="M135.958,39.462
		c-0.786-0.868-1.14-1.878-1.855-2.604c-0.711-0.721-4.771-3.325-4.771-3.325"/>
	<path fill="none" stroke="#FFFFFF" stroke-width="0.8614" stroke-linecap="round" d="M134.104,36.285
		c-0.284,0.647-0.284,1.807-0.284,2.457"/>
	<path fill="none" stroke="#FFFFFF" stroke-width="0.8614" stroke-linecap="round" d="M128.907,38.958c0,0,1.068-3.762,1.635-4.846"
		/>
	<path fill="#FFFFFF" d="M110.883,38.597c0,0.676,0.638,1.229,1.423,1.229c0.786,0,1.424-0.552,1.424-1.229
		c0-0.682-0.638-1.234-1.424-1.234C111.521,37.362,110.883,37.915,110.883,38.597z"/>
	<ellipse fill="#FFFFFF" cx="107.107" cy="37.439" rx="1.354" ry="1.375"/>
	<path fill="#FFFFFF" d="M100.338,37.295c0-0.603,0.543-1.087,1.213-1.087c0.667,0,1.211,0.484,1.211,1.087
		c0,0.596-0.543,1.083-1.211,1.083C100.882,38.378,100.338,37.891,100.338,37.295z"/>
	<path fill="#FFFFFF" d="M98.912,34.616c0,0.641-0.478,1.158-1.069,1.158c-0.59,0-1.069-0.517-1.069-1.158"/>
	<path fill="#FFFFFF" d="M93.644,37.726c0-0.599,0.7-1.083,1.565-1.083c0.862,0,1.565,0.484,1.565,1.083
		c0,0.602-0.703,1.087-1.565,1.087C94.344,38.813,93.644,38.328,93.644,37.726z"/>
	<path fill="none" stroke="#FFFFFF" stroke-width="0.8614" d="M103.259,40.259c0,0-5.058-4.775-5.699-5.643"/>
	<path fill="none" stroke="#FFFFFF" stroke-width="0.8614" d="M100.979,40.188c0,0,0.856-6.15,1.925-6.8"/>
	<path fill="none" stroke="#FFFFFF" stroke-width="0.8614" stroke-linecap="round" d="M108.816,40.044c0,0-6.913-5.643-7.267-6.148"
		/>
	<path fill="none" stroke="#FFFFFF" stroke-width="0.8614" stroke-linecap="round" d="M94.14,39.825
		c0.284-1.231,1.642-5.351,2.493-6.292"/>
	<path fill="none" stroke="#FFFFFF" stroke-width="0.8614" stroke-linecap="round" d="M97.347,40.188l-2.138-1.881
		c0,0-2.778-2.604-4.345-4.122"/>
	<path fill="none" stroke="#FFFFFF" stroke-width="0.8614" stroke-linecap="round" d="M113.517,39.825
		c-0.782-0.868-1.139-1.884-1.851-2.604c-0.712-0.72-4.775-3.325-4.775-3.325"/>
	<path fill="none" stroke="#FFFFFF" stroke-width="0.8614" stroke-linecap="round" d="M111.666,35.921
		c-0.286,0.649-0.286,1.804-0.286,2.457"/>
	<path fill="none" stroke="#FFFFFF" stroke-width="0.8614" stroke-linecap="round" d="M106.465,39.32c0,0,1.069-3.762,1.636-4.846"
		/>
	<path fill="#FFFFFF" d="M118.779,33.169"/>
	<path fill="none" stroke="#FFFFFF" stroke-width="0.8614" stroke-linecap="round" d="M118.779,33.169
		c1.14,0.726,2.211,2.026,2.637,2.968"/>
</g>
<path fill="#FFFFFF" d="M92.66,43.371c0,0,5.42-0.377,4.286,1.512C95.812,46.773,92.66,43.371,92.66,43.371z"/>
<path fill="#FFFFFF" d="M94.678,47.653c0,0,3.525-4.535,4.281-2.141C99.715,47.907,94.678,47.653,94.678,47.653z"/>
<path fill="#FFFFFF" d="M97.699,43.371c0,0,5.418-0.377,4.284,1.512S97.699,43.371,97.699,43.371z"/>
<path fill="#FFFFFF" d="M99.715,47.653c0,0,3.526-4.535,4.282-2.141C104.753,47.907,99.715,47.653,99.715,47.653z"/>
<path fill="#FFFFFF" d="M103.117,43.371c0,0,5.416-0.377,4.282,1.512S103.117,43.371,103.117,43.371z"/>
<path fill="#FFFFFF" d="M105.131,47.653c0,0,3.528-4.535,4.284-2.141C110.171,47.907,105.131,47.653,105.131,47.653z"/>
</svg>
