<?xml version="1.0" encoding="utf-8"?>
<!-- Generator: Adobe Illustrator 16.0.0, SVG Export Plug-In . SVG Version: 6.00 Build 0)  -->
<!DOCTYPE svg PUBLIC "-//W3C//DTD SVG 1.1//EN" "http://www.w3.org/Graphics/SVG/1.1/DTD/svg11.dtd">
<svg version="1.1" id="Layer_1" xmlns="http://www.w3.org/2000/svg" xmlns:xlink="http://www.w3.org/1999/xlink" x="0px" y="0px"
	 width="595.28px" height="841.89px" viewBox="0 0 595.28 841.89" enable-background="new 0 0 595.28 841.89" xml:space="preserve">
<path stroke="#000000" stroke-width="4.3339" stroke-miterlimit="10" d="M291.523,703.535c-16.252,0-33.588-31.421-89.928-146.27
	c-56.341-114.849-74.76-153.854-74.76-185.274c0-31.421,20.586-57.424,47.673-99.68c27.087-42.256,57.424-111.598,62.841-151.687
	s2.167-86.678,2.167-102.93S240.6,0.36,230.848,0.36c-9.751,0-11.918,8.667-6.5,14.085c5.417,5.417,8.667,21.669,8.667,50.923
	s-5.417,71.509-20.586,109.431c-15.168,37.921-24.92,62.841-46.589,95.346S116,335.153,116,371.992
	c0,36.838,23.836,92.095,57.424,154.937c33.587,62.841,74.76,144.102,81.26,185.273c6.501,41.173,9.751,70.427,3.25,92.096
	c-6.5,21.67-15.168,27.087-7.584,32.504c7.584,5.418,16.252,6.501,21.669,0c5.417-6.5,9.751-6.5,19.502-6.5"/>
<path d="M228.681,66.452c-15.168-13.001-37.921-24.92-47.673-9.751c-9.751,15.169-8.667,35.755-9.751,92.096
	c-1.083,56.34-5.417,105.097,4.334,97.513l-32.504,44.422c0,0-4.334,2.167,0-35.755c4.334-37.921,2.167-124.599,5.417-152.77
	s14.085-67.176,30.337-72.593c16.252-5.417,40.089,1.083,44.423-4.334"/>
<path fill="none" stroke="#000000" stroke-width="4.3339" stroke-miterlimit="10" d="M246.741,0.36h96.789
	c9.752,0,11.918,8.667,6.501,14.085s-8.667,21.669-8.667,50.923s5.417,71.509,20.586,109.431
	c15.168,37.921,24.92,62.841,46.589,95.346c21.67,32.504,49.84,65.008,49.84,101.847c0,36.838-23.836,92.095-57.425,154.937
	c-33.587,62.841-74.76,144.102-81.26,185.273c-6.501,41.173-9.752,70.427-3.25,92.096c6.5,21.67,15.168,27.087,7.584,32.504
	c-3.971,2.836-8.24,4.486-12.181,4.479h-34.365"/>
<path fill="none" stroke="#000000" stroke-width="4.3339" stroke-miterlimit="10" d="M348.228,16.976
	c-3.614,5.777,2.886,8.304,2.886,8.304c4.334,5.417,28.171-1.083,44.424,4.334c16.252,5.417,27.086,44.422,30.337,72.593
	c3.25,28.17,1.083,114.848,5.417,152.77c4.334,37.922,0,35.755,0,35.755s-7.944,0.368-2.887,7.588"/>
<path fill="none" stroke="#000000" stroke-width="4.3339" stroke-miterlimit="10" d="M398.787,246.309
	c9.751,7.584,5.417-41.172,4.334-97.513c-1.084-56.341,0-76.927-9.752-92.096c-9.751-15.168-32.504-3.25-47.672,9.751
	c0,0-3.615,1.083-4.334,11.559"/>
<line fill="none" stroke="#000000" stroke-width="4.3339" stroke-miterlimit="10" x1="288.996" y1="0" x2="288.996" y2="843.667"/>
</svg>
